<svg xmlns="http://www.w3.org/2000/svg" width="371" height="372" viewBox="0 0 371 372">
  <g id="グループ_10" data-name="グループ 10" transform="translate(-1406 -1245)">
    <g id="楕円形_5" data-name="楕円形 5" transform="translate(1406 1245)" fill="#fff" stroke="#ff9e1d" stroke-width="4">
      <ellipse cx="185.5" cy="186" rx="185.5" ry="186" stroke="none"/>
      <ellipse cx="185.5" cy="186" rx="183.5" ry="184" fill="none"/>
    </g>
    <circle id="楕円形_6" data-name="楕円形 6" cx="168" cy="168" r="168" transform="translate(1423 1263)" fill="#ff9e1d"/>
    <g id="漫画のアイコン" transform="translate(1500 1334)">
      <path id="パス_22" data-name="パス 22" d="M144.921,183.75H16.3V12.25H144.921V42.723c4.9-4.379,8.145-6.92,12-9.953l.245-.183V0H4.046V196H157.171V104.155a92.9,92.9,0,0,1-12.25,10.476Z" fill="#ffb655"/>
      <path id="パス_23" data-name="パス 23" d="M119.41,66.55c3-3.062,6.461-6.248,10.351-9.678,1.011-.981,1.99-1.9,2.91-2.787V31.851H28.546v137.2H132.671V121.582l-4.287,4.289-1.838,2.6v34.453H82.538v-4.411l-6.125,1.408v3H34.671v-46.55H71.605a20.183,20.183,0,0,1,3.644-4.9c.428-.431.857-.828,1.316-1.226H34.671V78.767ZM34.671,37.976h91.875V59.321L34.671,72.582Z" fill="#ffb655"/>
      <path id="パス_24" data-name="パス 24" d="M189.242,34.36c-5.051-5.048-13.775-2.79-23.02,4.719-8.376,6.646-12.1,9.2-29.233,25.691-11.943,10.4-21.24,20.523-23.284,28.023a11.248,11.248,0,0,0-.359,2l-8.67,8.67-20.5,14.451a10,10,0,0,0-1.37,1.155,10.451,10.451,0,0,0-2.8,5.042l-5.847,25.331,25.333-5.85a10.342,10.342,0,0,0,5.047-2.8,9.938,9.938,0,0,0,1.153-1.367l14.451-20.5,8.668-8.667a10.54,10.54,0,0,0,2-.359c7.5-2.04,17.627-11.338,28.026-23.28,16.488-17.137,19.042-20.858,25.687-29.237C192.039,48.136,194.295,39.415,189.242,34.36ZM101.883,136.748a5.844,5.844,0,0,1-.639.757,5.781,5.781,0,0,1-2.8,1.549L82.692,142.69l10.484-10.485a3.224,3.224,0,1,0-1.777-1.771L80.917,140.914l3.637-15.755a5.838,5.838,0,0,1,1.549-2.8,6.4,6.4,0,0,1,.761-.634l19.728-13.907,9.2,9.193Zm15.523-21.667-8.878-8.877,6.2-6.2a13.3,13.3,0,0,0,1.56,1.812l5.5,5.506a13.269,13.269,0,0,0,1.811,1.558Z" fill="#ffb655"/>
    </g>
  </g>
</svg>
