<svg xmlns="http://www.w3.org/2000/svg" width="372" height="372" viewBox="0 0 372 372">
  <g id="グループ_8" data-name="グループ 8" transform="translate(-143 -1245)">
    <g id="楕円形_2" data-name="楕円形 2" transform="translate(143 1245)" fill="#fff" stroke="#ff9e1d" stroke-width="4">
      <circle cx="186" cy="186" r="186" stroke="none"/>
      <circle cx="186" cy="186" r="184" fill="none"/>
    </g>
    <circle id="楕円形_1" data-name="楕円形 1" cx="168" cy="168" r="168" transform="translate(161 1263)" fill="#ff9e1d"/>
    <g id="キュートながま口財布アイコン" transform="translate(213 1315)">
      <path id="パス_19" data-name="パス 19" d="M208.736,134.979a44.739,44.739,0,0,0-7.309-11.528c-1.382-1.62-2.811-3.117-4.26-4.6a5.553,5.553,0,0,0-1.245-4.941l.027-.014a5.052,5.052,0,0,1-.3-1.32,27.508,27.508,0,0,1-.163-3.28c-.007-3.389.347-8.112.347-13.543a73.937,73.937,0,0,0-3.335-23.37,59.746,59.746,0,0,0-16.252-25.166c-10.052-9.46-21.8-14.659-33.163-17.449-.368-.088-.728-.156-1.082-.245A18.879,18.879,0,0,0,111.5,7.3,18.881,18.881,0,0,0,81,29.522c-.361.088-.715.156-1.082.245-11.365,2.79-23.125,7.99-33.163,17.449A59.814,59.814,0,0,0,30.5,72.383a74.1,74.1,0,0,0-3.328,23.37c0,5.431.347,10.14.347,13.529a20.875,20.875,0,0,1-.279,3.933,2.809,2.809,0,0,1-.184.667l-.007.014.02.014a5.559,5.559,0,0,0-1.239,4.941c-.476.476-.946.966-1.416,1.456a49.013,49.013,0,0,0-10.147,14.673c-2.627,6.125-4.138,13.713-4.131,23.887a52.547,52.547,0,0,0,7.643,27.97c7.486,12.154,20.015,21.192,36.008,27.174C69.8,220,89.389,223,111.5,223c29.481-.014,54.477-5.315,72.492-15.993,9-5.342,16.252-12.073,21.233-20.171a52.547,52.547,0,0,0,7.643-27.97C212.874,148.692,211.363,141.1,208.736,134.979ZM126.322,11.352a7.574,7.574,0,1,1-7.568,7.568A7.591,7.591,0,0,1,126.322,11.352Zm-29.651,0A7.574,7.574,0,1,1,89.1,18.919,7.591,7.591,0,0,1,96.671,11.352Zm87.593,93.112a66.206,66.206,0,0,1-8-15.04c-5.322-13.883-13.1-23.683-23.914-29.658s-24.207-8.18-40.846-8.18-30.039,2.191-40.846,8.18S52.062,75.54,46.74,89.423a67.346,67.346,0,0,1-8,15.067c-.109-2.763-.225-5.635-.218-8.738a62.946,62.946,0,0,1,2.77-19.831,48.258,48.258,0,0,1,13.25-20.43c8.316-7.84,18.089-12.229,28.1-14.7s20.158-2.94,28.862-2.94,18.865.476,28.862,2.94,19.776,6.86,28.1,14.7a48.327,48.327,0,0,1,13.25,20.43,62.906,62.906,0,0,1,2.77,19.831C184.488,98.842,184.373,101.714,184.264,104.463Z" fill="#ffb655"/>
    </g>
  </g>
</svg>
