<svg xmlns="http://www.w3.org/2000/svg" width="372" height="372" viewBox="0 0 372 372">
  <g id="グループ_9" data-name="グループ 9" transform="translate(-774 -1245)">
    <g id="楕円形_3" data-name="楕円形 3" transform="translate(774 1245)" fill="#fff" stroke="#ff9e1d" stroke-width="4">
      <circle cx="186" cy="186" r="186" stroke="none"/>
      <circle cx="186" cy="186" r="184" fill="none"/>
    </g>
    <ellipse id="楕円形_4" data-name="楕円形 4" cx="167.5" cy="168" rx="167.5" ry="168" transform="translate(793 1263)" fill="#ff9e1d"/>
    <g id="重なったウィンドウのアイコン" transform="translate(849 1320)">
      <path id="パス_20" data-name="パス 20" d="M159.563,69.375H20.813A20.813,20.813,0,0,0,0,90.188V197.719a20.813,20.813,0,0,0,20.813,20.813h138.75a20.813,20.813,0,0,0,20.813-20.812V90.188A20.813,20.813,0,0,0,159.563,69.375Zm-8.384,15.176a8.238,8.238,0,1,1-8.238,8.238A8.239,8.239,0,0,1,151.179,84.551Zm-30.568,0a8.238,8.238,0,1,1-8.238,8.238A8.239,8.239,0,0,1,120.61,84.551Zm-30.568,0A8.238,8.238,0,1,1,81.8,92.789,8.239,8.239,0,0,1,90.042,84.551Zm72.989,113.168a3.473,3.473,0,0,1-3.469,3.469H20.813a3.473,3.473,0,0,1-3.469-3.469v-83.25H163.031Z" fill="#ffb655"/>
      <path id="パス_21" data-name="パス 21" d="M201.188,3.469H62.438A20.813,20.813,0,0,0,41.625,24.281V48.563H204.656V152.314A20.8,20.8,0,0,0,222,131.813V24.281A20.813,20.813,0,0,0,201.188,3.469ZM131.667,35.121a8.238,8.238,0,1,1,8.238-8.238A8.239,8.239,0,0,1,131.667,35.121Zm30.568,0a8.238,8.238,0,1,1,8.238-8.238A8.239,8.239,0,0,1,162.235,35.121Zm30.568,0a8.238,8.238,0,1,1,8.238-8.238A8.239,8.239,0,0,1,192.8,35.121Z" fill="#ffb655"/>
    </g>
  </g>
</svg>
